<svg version="1.1" xmlns="http://www.w3.org/2000/svg" xmlns:xlink="http://www.w3.org/1999/xlink" x="0px" y="0px"
	 viewBox="0 0 612 792" style="enable-background:new 0 0 612 792;" xml:space="preserve">
	<style type="text/css">
		.tray>rect{fill:none;stroke:grey}
		.tray>text{font-size:12px;fill:black}
	</style>

	<g class="carousel" id="top-carousel">
		<path class="body" fill="none" stroke="grey" stroke-linejoin="miter"
        stroke-miterlimit="1" d="M413.8,221.4v75.3c-15.3,0-27.7,12.4-27.7,27.7c0,5,1.3,9.8,3.7,13.9L324.5,376
		c-4.8-8.3-13.7-13.9-24-13.9s-19.2,5.6-24,13.9l-65.2-37.7c2.4-4.1,3.7-8.8,3.7-13.9c0-15.3-12.4-27.7-27.7-27.7h-0.1v-75.3h0.1
		c15.3,0,27.7-12.4,27.7-27.7c0-5.1-1.4-9.8-3.7-13.9l65.2-37.7c4.8,8.3,13.7,13.9,24,13.9s19.2-5.6,24-13.9l65.3,37.7
		c-2.4,4.1-3.7,8.8-3.7,13.9C386,209,398.4,221.4,413.8,221.4z"/>
		<text transform="matrix(1 0 0 1 267.3232 262.3367)">top level</text>

		<g class="tray" id="S1L1">
			<rect rx="2" ry="2" x="364.6" y="225.7" width="45.4" height="66.6"/>
			<text transform="matrix(6.123234e-17 1 -1 6.123234e-17 385.5933 243.93)">S1L1</text>
		</g>

		<g class="tray" id="S2L1">
			<rect rx="2" ry="2" x="321.6" y="301.2" transform="matrix(0.4999 0.8661 -0.8661 0.4999 461.9144 -130.9007)" width="45.4" height="66.6"/>
			<text transform="matrix(-0.8661 0.4999 -0.4999 -0.8661 356.5401 324.4149)">S2L1</text>
		</g>

		<g class="tray" id="S3L1">
			<rect rx="2" ry="2" x="234.7" y="301.7" transform="matrix(-0.5001 0.866 -0.866 -0.5001 676.2405 279.5913)" width="45.4" height="66.6"/>
			<text transform="matrix(-0.866 -0.5001 0.5001 -0.866 272.3195 339.4906)">S3L1</text>
		</g>
		
		<g class="tray" id="S4L1">
			<rect rx="2" ry="2" x="190.8" y="226.7" transform="matrix(-1 -6.561137e-05 6.561137e-05 -1 427.1271 519.9607)" width="45.4" height="66.6"/>
			<text transform="matrix(6.712519e-05 -1 1 6.712519e-05 217.1523 274.0916)">S4L1</text>
		</g>
		
		<g class="tray" id="S5L1">
			<rect rx="2" ry="2" x="233.9" y="151.2" transform="matrix(-0.5 -0.866 0.866 -0.5 225.1314 498.9724)" width="45.4" height="66.6"/>
			<text transform="matrix(0.866 -0.5 0.5 0.866 246.2039 193.6158)">S5L1</text>
		</g>

		<g class="tray" id="S6L1">
			<rect rx="2" ry="2" x="320.8" y="150.7" transform="matrix(0.5 -0.866 0.866 0.5 12.3754 389.4879)" width="45.4" height="66.6"/>
			<text transform="matrix(0.866 0.5 -0.5 0.866 330.4229 178.5358)">S6L1</text>
		</g>
	</g>

	<g class="carousel" id="btm_carousel">
		<path class="body" fill="none" stroke="grey" stroke-linejoin="miter"
        stroke-miterlimit="1" d="M413.8,496.6V572c-15.3,0-27.7,12.4-27.7,27.7c0,5,1.3,9.8,3.7,13.9l-65.3,37.7
		c-4.8-8.3-13.7-13.9-24-13.9s-19.2,5.6-24,13.9l-65.2-37.7c2.4-4.1,3.7-8.8,3.7-13.9c0-15.3-12.4-27.7-27.7-27.7h-0.1v-75.3h0.1
		c15.3,0,27.7-12.4,27.7-27.7c0-5.1-1.4-9.8-3.7-13.9l65.2-37.7c4.8,8.3,13.7,13.9,24,13.9s19.2-5.6,24-13.9l65.3,37.7
		c-2.4,4.1-3.7,8.8-3.7,13.9C386,484.2,398.4,496.6,413.8,496.6z"/>
		<text transform="matrix(1 0 0 1 267.3233 536.9611)">btm level</text>

		<g class="tray" id="S1L2">
			<rect rx="2" ry="2" x="364.6" y="501" width="45.4" height="66.6"/>
			<text transform="matrix(6.123234e-17 1 -1 6.123234e-17 385.5933 519.7737)">S1L2</text>
		</g>
		<g class="tray" id="S2L2">
			<rect rx="2" ry="2" x="321.6" y="576.5" transform="matrix(0.4999 0.8661 -0.8661 0.4999 700.2864 6.7409)" width="45.4" height="66.6"/>
			<text transform="matrix(-0.8661 0.4999 -0.4999 -0.8661 356.5401 600.2587)">S2L2</text>
		</g>


		<g class="tray" id="S3L2">
			<rect rx="2" ry="2" x="234.7" y="576.9" transform="matrix(-0.5001 0.866 -0.866 -0.5001 914.5856 692.4587)" width="45.4" height="66.6"/>
			<text transform="matrix(-0.866 -0.5001 0.5001 -0.866 272.3195 615.3344)">S3L2</text>
		</g>

		<g class="tray" id="S4L2">
			<rect rx="2" ry="2" x="190.8" y="501.9" transform="matrix(-1 -6.561137e-05 6.561137e-05 -1 427.109 1070.4227)" width="45.4" height="66.6"/>
			<text transform="matrix(6.712519e-05 -1 1 6.712519e-05 217.1523 549.9354)">S4L2</text>
		</g>

		<g class="tray" id="S5L2">
			<rect rx="2" ry="2" x="233.9" y="426.4" transform="matrix(-0.5 -0.866 0.866 -0.5 -13.2316 911.8085)" width="45.4" height="66.6"/>
			<text transform="matrix(0.866 -0.5 0.5 0.866 246.2039 469.4596)">S5L2</text>
		</g>

		<g class="tray" id="S6L2">
			<rect rx="2" ry="2" x="320.8" y="425.9" transform="matrix(0.5 -0.866 0.866 0.5 -225.9787 527.0983)" width="45.4" height="66.6"/>
			<text transform="matrix(0.866 0.5 -0.5 0.866 330.4229 454.3795)">S6L2</text>
		</g>
	</g>
</svg>
